<svg width="205" height="145" viewBox="0 0 205 145" fill="none" xmlns="http://www.w3.org/2000/svg">
<path d="M29.274 71.406C29.154 71.406 29.052 71.37 28.968 71.298C28.896 71.214 28.86 71.112 28.86 70.992V67.248H25.17C25.05 67.248 24.948 67.212 24.864 67.14C24.792 67.056 24.756 66.954 24.756 66.834V66.258C24.756 66.138 24.792 66.042 24.864 65.97C24.948 65.886 25.05 65.844 25.17 65.844H28.86V62.208C28.86 62.088 28.896 61.992 28.968 61.92C29.052 61.836 29.154 61.794 29.274 61.794H29.904C30.024 61.794 30.12 61.836 30.192 61.92C30.276 61.992 30.318 62.088 30.318 62.208V65.844H34.026C34.146 65.844 34.242 65.886 34.314 65.97C34.398 66.042 34.44 66.138 34.44 66.258V66.834C34.44 66.954 34.398 67.056 34.314 67.14C34.242 67.212 34.146 67.248 34.026 67.248H30.318V70.992C30.318 71.112 30.276 71.214 30.192 71.298C30.12 71.37 30.024 71.406 29.904 71.406H29.274ZM40.9213 72.18C39.9853 72.18 39.1633 72.03 38.4553 71.73C37.7473 71.418 37.1953 70.974 36.7993 70.398C36.4033 69.822 36.2053 69.15 36.2053 68.382C36.2053 67.674 36.3793 67.056 36.7273 66.528C37.0753 65.988 37.5493 65.574 38.1493 65.286C37.6693 65.01 37.2973 64.65 37.0333 64.206C36.7813 63.75 36.6553 63.222 36.6553 62.622C36.6553 61.566 37.0393 60.738 37.8073 60.138C38.5873 59.526 39.6253 59.22 40.9213 59.22C42.2053 59.22 43.2313 59.526 43.9993 60.138C44.7793 60.738 45.1693 61.56 45.1693 62.604C45.1693 63.204 45.0373 63.732 44.7733 64.188C44.5213 64.632 44.1613 64.998 43.6933 65.286C44.2933 65.574 44.7673 65.988 45.1153 66.528C45.4633 67.056 45.6373 67.674 45.6373 68.382C45.6373 69.15 45.4393 69.822 45.0433 70.398C44.6473 70.974 44.0893 71.418 43.3693 71.73C42.6613 72.03 41.8453 72.18 40.9213 72.18ZM40.9213 64.638C41.6413 64.626 42.2473 64.44 42.7393 64.08C43.2313 63.72 43.4773 63.246 43.4773 62.658C43.4773 62.058 43.2313 61.578 42.7393 61.218C42.2593 60.846 41.6533 60.66 40.9213 60.66C40.1773 60.66 39.5593 60.84 39.0673 61.2C38.5873 61.56 38.3473 62.046 38.3473 62.658C38.3473 63.258 38.5873 63.738 39.0673 64.098C39.5593 64.458 40.1773 64.638 40.9213 64.638ZM40.9213 70.74C41.7613 70.74 42.4633 70.524 43.0273 70.092C43.5913 69.66 43.8733 69.09 43.8733 68.382C43.8733 67.674 43.5913 67.11 43.0273 66.69C42.4633 66.27 41.7613 66.06 40.9213 66.06C40.0693 66.06 39.3613 66.27 38.7973 66.69C38.2333 67.11 37.9513 67.674 37.9513 68.382C37.9513 69.09 38.2333 69.66 38.7973 70.092C39.3613 70.524 40.0693 70.74 40.9213 70.74ZM52.3646 72.18C51.4286 72.18 50.6066 72.03 49.8986 71.73C49.1906 71.418 48.6386 70.974 48.2426 70.398C47.8466 69.822 47.6486 69.15 47.6486 68.382C47.6486 67.674 47.8226 67.056 48.1706 66.528C48.5186 65.988 48.9926 65.574 49.5926 65.286C49.1126 65.01 48.7406 64.65 48.4766 64.206C48.2246 63.75 48.0986 63.222 48.0986 62.622C48.0986 61.566 48.4826 60.738 49.2506 60.138C50.0306 59.526 51.0686 59.22 52.3646 59.22C53.6486 59.22 54.6746 59.526 55.4426 60.138C56.2226 60.738 56.6126 61.56 56.6126 62.604C56.6126 63.204 56.4806 63.732 56.2166 64.188C55.9646 64.632 55.6046 64.998 55.1366 65.286C55.7366 65.574 56.2106 65.988 56.5586 66.528C56.9066 67.056 57.0806 67.674 57.0806 68.382C57.0806 69.15 56.8826 69.822 56.4866 70.398C56.0906 70.974 55.5326 71.418 54.8126 71.73C54.1046 72.03 53.2886 72.18 52.3646 72.18ZM52.3646 64.638C53.0846 64.626 53.6906 64.44 54.1826 64.08C54.6746 63.72 54.9206 63.246 54.9206 62.658C54.9206 62.058 54.6746 61.578 54.1826 61.218C53.7026 60.846 53.0966 60.66 52.3646 60.66C51.6206 60.66 51.0026 60.84 50.5106 61.2C50.0306 61.56 49.7906 62.046 49.7906 62.658C49.7906 63.258 50.0306 63.738 50.5106 64.098C51.0026 64.458 51.6206 64.638 52.3646 64.638ZM52.3646 70.74C53.2046 70.74 53.9066 70.524 54.4706 70.092C55.0346 69.66 55.3166 69.09 55.3166 68.382C55.3166 67.674 55.0346 67.11 54.4706 66.69C53.9066 66.27 53.2046 66.06 52.3646 66.06C51.5126 66.06 50.8046 66.27 50.2406 66.69C49.6766 67.11 49.3946 67.674 49.3946 68.382C49.3946 69.09 49.6766 69.66 50.2406 70.092C50.8046 70.524 51.5126 70.74 52.3646 70.74ZM63.808 72.18C62.872 72.18 62.05 72.03 61.342 71.73C60.634 71.418 60.082 70.974 59.686 70.398C59.29 69.822 59.092 69.15 59.092 68.382C59.092 67.674 59.266 67.056 59.614 66.528C59.962 65.988 60.436 65.574 61.036 65.286C60.556 65.01 60.184 64.65 59.92 64.206C59.668 63.75 59.542 63.222 59.542 62.622C59.542 61.566 59.926 60.738 60.694 60.138C61.474 59.526 62.512 59.22 63.808 59.22C65.092 59.22 66.118 59.526 66.886 60.138C67.666 60.738 68.056 61.56 68.056 62.604C68.056 63.204 67.924 63.732 67.66 64.188C67.408 64.632 67.048 64.998 66.58 65.286C67.18 65.574 67.654 65.988 68.002 66.528C68.35 67.056 68.524 67.674 68.524 68.382C68.524 69.15 68.326 69.822 67.93 70.398C67.534 70.974 66.976 71.418 66.256 71.73C65.548 72.03 64.732 72.18 63.808 72.18ZM63.808 64.638C64.528 64.626 65.134 64.44 65.626 64.08C66.118 63.72 66.364 63.246 66.364 62.658C66.364 62.058 66.118 61.578 65.626 61.218C65.146 60.846 64.54 60.66 63.808 60.66C63.064 60.66 62.446 60.84 61.954 61.2C61.474 61.56 61.234 62.046 61.234 62.658C61.234 63.258 61.474 63.738 61.954 64.098C62.446 64.458 63.064 64.638 63.808 64.638ZM63.808 70.74C64.648 70.74 65.35 70.524 65.914 70.092C66.478 69.66 66.76 69.09 66.76 68.382C66.76 67.674 66.478 67.11 65.914 66.69C65.35 66.27 64.648 66.06 63.808 66.06C62.956 66.06 62.248 66.27 61.684 66.69C61.12 67.11 60.838 67.674 60.838 68.382C60.838 69.09 61.12 69.66 61.684 70.092C62.248 70.524 62.956 70.74 63.808 70.74ZM79.1955 72.18C78.2835 72.18 77.4975 72.018 76.8375 71.694C76.1775 71.37 75.6675 70.944 75.3075 70.416C74.9595 69.888 74.7735 69.324 74.7495 68.724V68.688C74.7495 68.592 74.7855 68.514 74.8575 68.454C74.9295 68.394 75.0135 68.364 75.1095 68.364H76.0815C76.3335 68.364 76.4955 68.496 76.5675 68.76C76.7355 69.396 77.0595 69.87 77.5395 70.182C78.0195 70.494 78.5715 70.65 79.1955 70.65C79.9995 70.65 80.6655 70.41 81.1935 69.93C81.7335 69.438 82.0035 68.76 82.0035 67.896C82.0035 67.116 81.7335 66.486 81.1935 66.006C80.6655 65.526 79.9995 65.286 79.1955 65.286C78.7635 65.286 78.4155 65.346 78.1515 65.466C77.8875 65.574 77.6235 65.73 77.3595 65.934C77.2155 66.042 77.0895 66.126 76.9815 66.186C76.8855 66.234 76.7775 66.258 76.6575 66.258H75.7215C75.6135 66.258 75.5175 66.222 75.4335 66.15C75.3495 66.066 75.3135 65.97 75.3255 65.862L75.9015 59.85C75.9135 59.706 75.9555 59.598 76.0275 59.526C76.1115 59.442 76.2195 59.4 76.3515 59.4H82.6335C82.7535 59.4 82.8495 59.442 82.9215 59.526C83.0055 59.598 83.0475 59.694 83.0475 59.814V60.516C83.0475 60.636 83.0055 60.738 82.9215 60.822C82.8495 60.894 82.7535 60.93 82.6335 60.93H77.4495L77.1075 64.476C77.7555 64.068 78.5355 63.864 79.4475 63.864C80.2395 63.864 80.9655 64.026 81.6255 64.35C82.2975 64.674 82.8255 65.142 83.2095 65.754C83.6055 66.366 83.8035 67.086 83.8035 67.914C83.8035 68.802 83.6055 69.57 83.2095 70.218C82.8255 70.854 82.2855 71.34 81.5895 71.676C80.8935 72.012 80.0955 72.18 79.1955 72.18ZM90.171 72.18C89.211 72.18 88.377 71.988 87.669 71.604C86.961 71.208 86.421 70.68 86.049 70.02C85.677 69.36 85.491 68.64 85.491 67.86C85.491 67.224 85.617 66.624 85.869 66.06C86.133 65.484 86.427 64.974 86.751 64.53L90.171 59.76C90.183 59.748 90.219 59.706 90.279 59.634C90.327 59.562 90.393 59.508 90.477 59.472C90.561 59.424 90.657 59.4 90.765 59.4H91.719C91.827 59.4 91.911 59.442 91.971 59.526C92.043 59.598 92.079 59.688 92.079 59.796C92.079 59.88 92.055 59.958 92.007 60.03L89.379 63.702C89.643 63.618 89.985 63.576 90.405 63.576C91.269 63.588 92.031 63.786 92.691 64.17C93.363 64.554 93.879 65.07 94.239 65.718C94.611 66.366 94.797 67.074 94.797 67.842C94.797 68.61 94.611 69.33 94.239 70.002C93.879 70.662 93.345 71.19 92.637 71.586C91.941 71.982 91.119 72.18 90.171 72.18ZM90.153 70.65C90.669 70.65 91.143 70.542 91.575 70.326C92.019 70.11 92.367 69.792 92.619 69.372C92.883 68.94 93.015 68.43 93.015 67.842C93.015 67.266 92.883 66.768 92.619 66.348C92.367 65.928 92.019 65.61 91.575 65.394C91.143 65.178 90.669 65.07 90.153 65.07C89.649 65.07 89.175 65.178 88.731 65.394C88.299 65.61 87.951 65.928 87.687 66.348C87.423 66.768 87.291 67.266 87.291 67.842C87.291 68.43 87.423 68.94 87.687 69.372C87.951 69.792 88.299 70.11 88.731 70.326C89.163 70.542 89.637 70.65 90.153 70.65ZM100.001 72C99.8812 72 99.7792 71.964 99.6952 71.892C99.6232 71.808 99.5872 71.706 99.5872 71.586V61.506L96.5992 63.81C96.5152 63.882 96.4252 63.918 96.3292 63.918C96.2212 63.918 96.1192 63.858 96.0232 63.738L95.5552 63.144C95.4952 63.06 95.4652 62.976 95.4652 62.892C95.4652 62.748 95.5252 62.634 95.6452 62.55L99.5692 59.526C99.7012 59.442 99.8572 59.4 100.037 59.4H100.955C101.075 59.4 101.171 59.442 101.243 59.526C101.327 59.598 101.369 59.694 101.369 59.814V71.586C101.369 71.706 101.327 71.808 101.243 71.892C101.171 71.964 101.075 72 100.955 72H100.001ZM108.441 72C108.321 72 108.219 71.964 108.135 71.892C108.063 71.808 108.027 71.706 108.027 71.586V71.01C108.027 70.734 108.177 70.47 108.477 70.218L112.293 66.402C113.217 65.634 113.853 65.01 114.201 64.53C114.549 64.038 114.723 63.522 114.723 62.982C114.723 62.286 114.525 61.74 114.129 61.344C113.745 60.948 113.181 60.75 112.437 60.75C111.741 60.75 111.183 60.96 110.763 61.38C110.343 61.788 110.085 62.334 109.989 63.018C109.965 63.162 109.905 63.27 109.809 63.342C109.725 63.402 109.629 63.432 109.521 63.432H108.585C108.477 63.432 108.387 63.402 108.315 63.342C108.243 63.27 108.207 63.186 108.207 63.09C108.231 62.442 108.405 61.824 108.729 61.236C109.053 60.636 109.527 60.15 110.151 59.778C110.787 59.394 111.549 59.202 112.437 59.202C113.793 59.202 114.813 59.556 115.497 60.264C116.193 60.96 116.541 61.848 116.541 62.928C116.541 63.684 116.349 64.368 115.965 64.98C115.593 65.58 115.011 66.228 114.219 66.924L110.763 70.434H116.379C116.511 70.434 116.613 70.476 116.685 70.56C116.769 70.632 116.811 70.728 116.811 70.848V71.586C116.811 71.706 116.769 71.808 116.685 71.892C116.601 71.964 116.499 72 116.379 72H108.441ZM122.965 72.18C122.053 72.18 121.267 72.018 120.607 71.694C119.947 71.37 119.437 70.944 119.077 70.416C118.729 69.888 118.543 69.324 118.519 68.724V68.688C118.519 68.592 118.555 68.514 118.627 68.454C118.699 68.394 118.783 68.364 118.879 68.364H119.851C120.103 68.364 120.265 68.496 120.337 68.76C120.505 69.396 120.829 69.87 121.309 70.182C121.789 70.494 122.341 70.65 122.965 70.65C123.769 70.65 124.435 70.41 124.963 69.93C125.503 69.438 125.773 68.76 125.773 67.896C125.773 67.116 125.503 66.486 124.963 66.006C124.435 65.526 123.769 65.286 122.965 65.286C122.533 65.286 122.185 65.346 121.921 65.466C121.657 65.574 121.393 65.73 121.129 65.934C120.985 66.042 120.859 66.126 120.751 66.186C120.655 66.234 120.547 66.258 120.427 66.258H119.491C119.383 66.258 119.287 66.222 119.203 66.15C119.119 66.066 119.083 65.97 119.095 65.862L119.671 59.85C119.683 59.706 119.725 59.598 119.797 59.526C119.881 59.442 119.989 59.4 120.121 59.4H126.403C126.523 59.4 126.619 59.442 126.691 59.526C126.775 59.598 126.817 59.694 126.817 59.814V60.516C126.817 60.636 126.775 60.738 126.691 60.822C126.619 60.894 126.523 60.93 126.403 60.93H121.219L120.877 64.476C121.525 64.068 122.305 63.864 123.217 63.864C124.009 63.864 124.735 64.026 125.395 64.35C126.067 64.674 126.595 65.142 126.979 65.754C127.375 66.366 127.573 67.086 127.573 67.914C127.573 68.802 127.375 69.57 126.979 70.218C126.595 70.854 126.055 71.34 125.359 71.676C124.663 72.012 123.865 72.18 122.965 72.18ZM134.12 72.18C133.184 72.18 132.362 72.03 131.654 71.73C130.946 71.418 130.394 70.974 129.998 70.398C129.602 69.822 129.404 69.15 129.404 68.382C129.404 67.674 129.578 67.056 129.926 66.528C130.274 65.988 130.748 65.574 131.348 65.286C130.868 65.01 130.496 64.65 130.232 64.206C129.98 63.75 129.854 63.222 129.854 62.622C129.854 61.566 130.238 60.738 131.006 60.138C131.786 59.526 132.824 59.22 134.12 59.22C135.404 59.22 136.43 59.526 137.198 60.138C137.978 60.738 138.368 61.56 138.368 62.604C138.368 63.204 138.236 63.732 137.972 64.188C137.72 64.632 137.36 64.998 136.892 65.286C137.492 65.574 137.966 65.988 138.314 66.528C138.662 67.056 138.836 67.674 138.836 68.382C138.836 69.15 138.638 69.822 138.242 70.398C137.846 70.974 137.288 71.418 136.568 71.73C135.86 72.03 135.044 72.18 134.12 72.18ZM134.12 64.638C134.84 64.626 135.446 64.44 135.938 64.08C136.43 63.72 136.676 63.246 136.676 62.658C136.676 62.058 136.43 61.578 135.938 61.218C135.458 60.846 134.852 60.66 134.12 60.66C133.376 60.66 132.758 60.84 132.266 61.2C131.786 61.56 131.546 62.046 131.546 62.658C131.546 63.258 131.786 63.738 132.266 64.098C132.758 64.458 133.376 64.638 134.12 64.638ZM134.12 70.74C134.96 70.74 135.662 70.524 136.226 70.092C136.79 69.66 137.072 69.09 137.072 68.382C137.072 67.674 136.79 67.11 136.226 66.69C135.662 66.27 134.96 66.06 134.12 66.06C133.268 66.06 132.56 66.27 131.996 66.69C131.432 67.11 131.15 67.674 131.15 68.382C131.15 69.09 131.432 69.66 131.996 70.092C132.56 70.524 133.268 70.74 134.12 70.74Z" fill="#555555"/>
<path d="M27.816 105C27.66 105 27.54 104.964 27.456 104.892C27.372 104.82 27.3 104.706 27.24 104.55L24.684 96.198L24.648 96.018C24.648 95.91 24.684 95.82 24.756 95.748C24.84 95.676 24.93 95.64 25.026 95.64H25.818C25.938 95.64 26.034 95.676 26.106 95.748C26.19 95.808 26.244 95.874 26.268 95.946L28.266 102.732L30.408 96.018C30.432 95.922 30.486 95.838 30.57 95.766C30.654 95.682 30.768 95.64 30.912 95.64H31.524C31.668 95.64 31.782 95.682 31.866 95.766C31.95 95.838 32.004 95.922 32.028 96.018L34.17 102.732L36.168 95.946C36.18 95.886 36.222 95.82 36.294 95.748C36.378 95.676 36.48 95.64 36.6 95.64H37.41C37.506 95.64 37.59 95.676 37.662 95.748C37.734 95.82 37.77 95.91 37.77 96.018L37.734 96.198L35.196 104.55C35.136 104.706 35.064 104.82 34.98 104.892C34.896 104.964 34.77 105 34.602 105H33.9C33.576 105 33.378 104.85 33.306 104.55L31.218 98.106L29.13 104.55C29.034 104.85 28.83 105 28.518 105H27.816ZM43.2615 105.18C42.0255 105.18 41.0355 104.802 40.2915 104.046C39.5595 103.278 39.1575 102.234 39.0855 100.914L39.0675 100.302L39.0855 99.708C39.1695 98.412 39.5775 97.38 40.3095 96.612C41.0535 95.844 42.0315 95.46 43.2435 95.46C44.5755 95.46 45.6075 95.886 46.3395 96.738C47.0715 97.578 47.4375 98.718 47.4375 100.158V100.464C47.4375 100.584 47.3955 100.686 47.3115 100.77C47.2395 100.842 47.1435 100.878 47.0235 100.878H40.7955V101.04C40.8315 101.82 41.0655 102.486 41.4975 103.038C41.9415 103.578 42.5235 103.848 43.2435 103.848C43.7955 103.848 44.2455 103.74 44.5935 103.524C44.9535 103.296 45.2175 103.062 45.3855 102.822C45.4935 102.678 45.5715 102.594 45.6195 102.57C45.6795 102.534 45.7815 102.516 45.9255 102.516H46.8075C46.9155 102.516 47.0055 102.546 47.0775 102.606C47.1495 102.666 47.1855 102.75 47.1855 102.858C47.1855 103.122 47.0175 103.44 46.6815 103.812C46.3575 104.184 45.8955 104.508 45.2955 104.784C44.7075 105.048 44.0295 105.18 43.2615 105.18ZM45.7275 99.636V99.582C45.7275 98.754 45.4995 98.082 45.0435 97.566C44.5995 97.038 43.9995 96.774 43.2435 96.774C42.4875 96.774 41.8875 97.038 41.4435 97.566C41.0115 98.082 40.7955 98.754 40.7955 99.582V99.636H45.7275ZM54.2158 105.18C52.9198 105.18 51.9358 104.73 51.2638 103.83V104.586C51.2638 104.706 51.2218 104.808 51.1378 104.892C51.0658 104.964 50.9698 105 50.8498 105H50.0218C49.9018 105 49.7998 104.964 49.7158 104.892C49.6438 104.808 49.6078 104.706 49.6078 104.586V92.634C49.6078 92.514 49.6438 92.418 49.7158 92.346C49.7998 92.262 49.9018 92.22 50.0218 92.22H50.9038C51.0238 92.22 51.1198 92.262 51.1918 92.346C51.2638 92.418 51.2998 92.514 51.2998 92.634V96.774C52.0078 95.898 52.9798 95.46 54.2158 95.46C55.4638 95.46 56.4058 95.874 57.0418 96.702C57.6778 97.518 58.0198 98.544 58.0678 99.78C58.0798 99.912 58.0858 100.092 58.0858 100.32C58.0858 100.548 58.0798 100.728 58.0678 100.86C58.0198 102.108 57.6778 103.14 57.0418 103.956C56.4058 104.772 55.4638 105.18 54.2158 105.18ZM53.8378 103.722C54.6898 103.722 55.3078 103.458 55.6918 102.93C56.0878 102.402 56.3038 101.706 56.3398 100.842C56.3518 100.722 56.3578 100.548 56.3578 100.32C56.3578 98.052 55.5178 96.918 53.8378 96.918C53.0338 96.918 52.4158 97.182 51.9838 97.71C51.5518 98.238 51.3238 98.856 51.2998 99.564L51.2818 100.266L51.2998 100.95C51.3358 101.706 51.5578 102.36 51.9658 102.912C52.3858 103.452 53.0098 103.722 53.8378 103.722ZM60.7089 105C60.5889 105 60.4869 104.964 60.4029 104.892C60.3309 104.808 60.2949 104.706 60.2949 104.586V96.054C60.2949 95.934 60.3309 95.838 60.4029 95.766C60.4869 95.682 60.5889 95.64 60.7089 95.64H61.5189C61.6389 95.64 61.7349 95.682 61.8069 95.766C61.8909 95.838 61.9329 95.934 61.9329 96.054V96.684C62.5569 95.868 63.4269 95.46 64.5429 95.46C65.8749 95.46 66.8169 96.012 67.3689 97.116C67.6569 96.612 68.0649 96.21 68.5929 95.91C69.1209 95.61 69.7149 95.46 70.3749 95.46C71.3589 95.46 72.1629 95.796 72.7869 96.468C73.4109 97.14 73.7229 98.112 73.7229 99.384V104.586C73.7229 104.706 73.6809 104.808 73.5969 104.892C73.5249 104.964 73.4289 105 73.3089 105H72.4629C72.3429 105 72.2409 104.964 72.1569 104.892C72.0849 104.808 72.0489 104.706 72.0489 104.586V99.546C72.0489 98.61 71.8509 97.938 71.4549 97.53C71.0709 97.122 70.5609 96.918 69.9249 96.918C69.3609 96.918 68.8749 97.128 68.4669 97.548C68.0589 97.956 67.8549 98.622 67.8549 99.546V104.586C67.8549 104.706 67.8129 104.808 67.7289 104.892C67.6569 104.964 67.5609 105 67.4409 105H66.5949C66.4749 105 66.3729 104.964 66.2889 104.892C66.2169 104.808 66.1809 104.706 66.1809 104.586V99.546C66.1809 98.61 65.9769 97.938 65.5689 97.53C65.1729 97.122 64.6689 96.918 64.0569 96.918C63.4929 96.918 63.0069 97.128 62.5989 97.548C62.1909 97.956 61.9869 98.616 61.9869 99.528V104.586C61.9869 104.706 61.9449 104.808 61.8609 104.892C61.7889 104.964 61.6929 105 61.5729 105H60.7089ZM78.901 105.18C78.313 105.18 77.767 105.06 77.263 104.82C76.759 104.58 76.357 104.256 76.057 103.848C75.769 103.428 75.625 102.966 75.625 102.462C75.625 101.67 75.949 101.022 76.597 100.518C77.257 100.002 78.145 99.666 79.261 99.51L81.943 99.132V98.61C81.943 97.386 81.241 96.774 79.837 96.774C79.309 96.774 78.877 96.888 78.541 97.116C78.205 97.332 77.953 97.59 77.785 97.89C77.749 97.998 77.701 98.076 77.641 98.124C77.593 98.172 77.521 98.196 77.425 98.196H76.651C76.543 98.196 76.447 98.16 76.363 98.088C76.291 98.004 76.255 97.908 76.255 97.8C76.267 97.512 76.399 97.188 76.651 96.828C76.915 96.456 77.317 96.138 77.857 95.874C78.397 95.598 79.063 95.46 79.855 95.46C81.199 95.46 82.165 95.778 82.753 96.414C83.341 97.038 83.635 97.818 83.635 98.754V104.586C83.635 104.706 83.593 104.808 83.509 104.892C83.437 104.964 83.341 105 83.221 105H82.393C82.273 105 82.171 104.964 82.087 104.892C82.015 104.808 81.979 104.706 81.979 104.586V103.812C81.715 104.196 81.331 104.52 80.827 104.784C80.323 105.048 79.681 105.18 78.901 105.18ZM79.279 103.83C80.059 103.83 80.695 103.578 81.187 103.074C81.691 102.558 81.943 101.82 81.943 100.86V100.356L79.855 100.662C79.003 100.782 78.361 100.986 77.929 101.274C77.497 101.55 77.281 101.904 77.281 102.336C77.281 102.816 77.479 103.188 77.875 103.452C78.271 103.704 78.739 103.83 79.279 103.83ZM86.4926 93.894C86.3726 93.894 86.2706 93.858 86.1866 93.786C86.1146 93.702 86.0786 93.6 86.0786 93.48V92.508C86.0786 92.388 86.1146 92.286 86.1866 92.202C86.2706 92.118 86.3726 92.076 86.4926 92.076H87.6266C87.7466 92.076 87.8486 92.118 87.9326 92.202C88.0166 92.286 88.0586 92.388 88.0586 92.508V93.48C88.0586 93.6 88.0166 93.702 87.9326 93.786C87.8486 93.858 87.7466 93.894 87.6266 93.894H86.4926ZM86.6366 105C86.5166 105 86.4146 104.964 86.3306 104.892C86.2586 104.808 86.2226 104.706 86.2226 104.586V96.054C86.2226 95.934 86.2586 95.838 86.3306 95.766C86.4146 95.682 86.5166 95.64 86.6366 95.64H87.5006C87.6206 95.64 87.7166 95.682 87.7886 95.766C87.8726 95.838 87.9146 95.934 87.9146 96.054V104.586C87.9146 104.706 87.8726 104.808 87.7886 104.892C87.7166 104.964 87.6206 105 87.5006 105H86.6366ZM91.014 105C90.894 105 90.792 104.964 90.708 104.892C90.636 104.808 90.6 104.706 90.6 104.586V92.634C90.6 92.514 90.636 92.418 90.708 92.346C90.792 92.262 90.894 92.22 91.014 92.22H91.86C91.98 92.22 92.076 92.262 92.148 92.346C92.232 92.418 92.274 92.514 92.274 92.634V104.586C92.274 104.706 92.232 104.808 92.148 104.892C92.076 104.964 91.98 105 91.86 105H91.014ZM98.703 105.18C97.467 105.18 96.477 104.802 95.733 104.046C95.001 103.278 94.599 102.234 94.527 100.914L94.509 100.302L94.527 99.708C94.611 98.412 95.019 97.38 95.751 96.612C96.495 95.844 97.473 95.46 98.685 95.46C100.017 95.46 101.049 95.886 101.781 96.738C102.513 97.578 102.879 98.718 102.879 100.158V100.464C102.879 100.584 102.837 100.686 102.753 100.77C102.681 100.842 102.585 100.878 102.465 100.878H96.237V101.04C96.273 101.82 96.507 102.486 96.939 103.038C97.383 103.578 97.965 103.848 98.685 103.848C99.237 103.848 99.687 103.74 100.035 103.524C100.395 103.296 100.659 103.062 100.827 102.822C100.935 102.678 101.013 102.594 101.061 102.57C101.121 102.534 101.223 102.516 101.367 102.516H102.249C102.357 102.516 102.447 102.546 102.519 102.606C102.591 102.666 102.627 102.75 102.627 102.858C102.627 103.122 102.459 103.44 102.123 103.812C101.799 104.184 101.337 104.508 100.737 104.784C100.149 105.048 99.471 105.18 98.703 105.18ZM101.169 99.636V99.582C101.169 98.754 100.941 98.082 100.485 97.566C100.041 97.038 99.441 96.774 98.685 96.774C97.929 96.774 97.329 97.038 96.885 97.566C96.453 98.082 96.237 98.754 96.237 99.582V99.636H101.169ZM111.097 107.124C109.201 107.124 107.719 106.644 106.651 105.684C105.583 104.736 104.959 103.386 104.779 101.634C104.743 101.286 104.725 100.77 104.725 100.086C104.725 99.366 104.743 98.856 104.779 98.556C104.959 96.852 105.583 95.508 106.651 94.524C107.731 93.528 109.189 93.03 111.025 93.03C113.149 93.03 114.745 93.51 115.813 94.47C116.881 95.418 117.463 96.78 117.559 98.556C117.583 99.036 117.595 99.408 117.595 99.672C117.595 100.212 117.583 100.626 117.559 100.914C117.511 101.778 117.271 102.438 116.839 102.894C116.419 103.35 115.843 103.578 115.111 103.578C114.595 103.578 114.175 103.47 113.851 103.254C113.527 103.038 113.281 102.804 113.113 102.552C112.909 102.888 112.633 103.176 112.285 103.416C111.949 103.644 111.463 103.758 110.827 103.758C109.927 103.758 109.213 103.44 108.685 102.804C108.169 102.156 107.911 101.25 107.911 100.086C107.911 98.922 108.169 98.016 108.685 97.368C109.213 96.72 109.927 96.396 110.827 96.396C111.271 96.396 111.631 96.48 111.907 96.648C112.195 96.804 112.447 97.008 112.663 97.26V96.954C112.663 96.834 112.699 96.738 112.771 96.666C112.855 96.582 112.957 96.54 113.077 96.54H113.563C113.683 96.54 113.779 96.582 113.851 96.666C113.935 96.738 113.977 96.834 113.977 96.954V100.788C113.977 101.28 114.079 101.658 114.283 101.922C114.487 102.186 114.763 102.318 115.111 102.318C115.531 102.318 115.819 102.162 115.975 101.85C116.143 101.538 116.233 101.184 116.245 100.788C116.269 100.5 116.281 100.128 116.281 99.672C116.281 99.468 116.269 99.126 116.245 98.646C116.137 97.182 115.675 96.09 114.859 95.37C114.055 94.638 112.777 94.272 111.025 94.272C109.573 94.272 108.427 94.656 107.587 95.424C106.759 96.18 106.261 97.254 106.093 98.646C106.057 98.946 106.039 99.426 106.039 100.086C106.039 100.71 106.057 101.196 106.093 101.544C106.237 102.924 106.735 103.992 107.587 104.748C108.439 105.492 109.609 105.864 111.097 105.864C111.877 105.864 112.519 105.798 113.023 105.666C113.539 105.546 113.911 105.414 114.139 105.27C114.379 105.126 114.655 104.934 114.967 104.694C114.991 104.682 115.045 104.64 115.129 104.568C115.213 104.508 115.315 104.478 115.435 104.478H116.155C116.263 104.478 116.353 104.514 116.425 104.586C116.509 104.658 116.551 104.754 116.551 104.874C116.551 104.97 116.515 105.054 116.443 105.126C115.891 105.726 115.189 106.206 114.337 106.566C113.497 106.938 112.417 107.124 111.097 107.124ZM110.935 102.498C111.547 102.498 111.985 102.294 112.249 101.886C112.525 101.466 112.663 100.866 112.663 100.086C112.663 99.306 112.525 98.706 112.249 98.286C111.985 97.866 111.547 97.656 110.935 97.656C110.347 97.656 109.915 97.872 109.639 98.304C109.363 98.724 109.225 99.318 109.225 100.086C109.225 100.794 109.363 101.376 109.639 101.832C109.927 102.276 110.359 102.498 110.935 102.498ZM123.842 108.96C122.858 108.96 122.066 108.792 121.466 108.456C120.866 108.132 120.44 107.76 120.188 107.34C119.936 106.92 119.798 106.542 119.774 106.206C119.762 106.086 119.798 105.984 119.882 105.9C119.978 105.816 120.08 105.774 120.188 105.774H121.052C121.16 105.774 121.25 105.798 121.322 105.846C121.394 105.906 121.454 106.008 121.502 106.152C121.646 106.536 121.88 106.866 122.204 107.142C122.54 107.43 123.056 107.574 123.752 107.574C124.64 107.574 125.294 107.382 125.714 106.998C126.134 106.626 126.344 105.96 126.344 105V103.776C126.032 104.172 125.636 104.49 125.156 104.73C124.676 104.958 124.106 105.072 123.446 105.072C122.174 105.072 121.22 104.67 120.584 103.866C119.96 103.05 119.63 102.018 119.594 100.77L119.576 100.266L119.594 99.78C119.63 98.544 119.966 97.518 120.602 96.702C121.238 95.874 122.186 95.46 123.446 95.46C124.706 95.46 125.69 95.922 126.398 96.846V96.072C126.398 95.952 126.434 95.85 126.506 95.766C126.59 95.682 126.692 95.64 126.812 95.64H127.64C127.76 95.64 127.862 95.682 127.946 95.766C128.03 95.85 128.072 95.952 128.072 96.072V104.802C128.072 107.574 126.662 108.96 123.842 108.96ZM123.806 103.632C124.622 103.632 125.24 103.362 125.66 102.822C126.08 102.282 126.308 101.64 126.344 100.896C126.356 100.788 126.362 100.578 126.362 100.266C126.362 99.966 126.356 99.762 126.344 99.654C126.308 98.91 126.08 98.268 125.66 97.728C125.252 97.188 124.634 96.918 123.806 96.918C122.954 96.918 122.336 97.182 121.952 97.71C121.568 98.238 121.358 98.934 121.322 99.798L121.304 100.266L121.322 100.752C121.358 101.604 121.568 102.3 121.952 102.84C122.336 103.368 122.954 103.632 123.806 103.632ZM131.162 105C131.042 105 130.94 104.964 130.856 104.892C130.784 104.808 130.748 104.706 130.748 104.586V96.054C130.748 95.934 130.784 95.838 130.856 95.766C130.94 95.682 131.042 95.64 131.162 95.64H131.972C132.092 95.64 132.188 95.682 132.26 95.766C132.344 95.838 132.386 95.934 132.386 96.054V96.684C133.01 95.868 133.88 95.46 134.996 95.46C136.328 95.46 137.27 96.012 137.822 97.116C138.11 96.612 138.518 96.21 139.046 95.91C139.574 95.61 140.168 95.46 140.828 95.46C141.812 95.46 142.616 95.796 143.24 96.468C143.864 97.14 144.176 98.112 144.176 99.384V104.586C144.176 104.706 144.134 104.808 144.05 104.892C143.978 104.964 143.882 105 143.762 105H142.916C142.796 105 142.694 104.964 142.61 104.892C142.538 104.808 142.502 104.706 142.502 104.586V99.546C142.502 98.61 142.304 97.938 141.908 97.53C141.524 97.122 141.014 96.918 140.378 96.918C139.814 96.918 139.328 97.128 138.92 97.548C138.512 97.956 138.308 98.622 138.308 99.546V104.586C138.308 104.706 138.266 104.808 138.182 104.892C138.11 104.964 138.014 105 137.894 105H137.048C136.928 105 136.826 104.964 136.742 104.892C136.67 104.808 136.634 104.706 136.634 104.586V99.546C136.634 98.61 136.43 97.938 136.022 97.53C135.626 97.122 135.122 96.918 134.51 96.918C133.946 96.918 133.46 97.128 133.052 97.548C132.644 97.956 132.44 98.616 132.44 99.528V104.586C132.44 104.706 132.398 104.808 132.314 104.892C132.242 104.964 132.146 105 132.026 105H131.162ZM149.354 105.18C148.766 105.18 148.22 105.06 147.716 104.82C147.212 104.58 146.81 104.256 146.51 103.848C146.222 103.428 146.078 102.966 146.078 102.462C146.078 101.67 146.402 101.022 147.05 100.518C147.71 100.002 148.598 99.666 149.714 99.51L152.396 99.132V98.61C152.396 97.386 151.694 96.774 150.29 96.774C149.762 96.774 149.33 96.888 148.994 97.116C148.658 97.332 148.406 97.59 148.238 97.89C148.202 97.998 148.154 98.076 148.094 98.124C148.046 98.172 147.974 98.196 147.878 98.196H147.104C146.996 98.196 146.9 98.16 146.816 98.088C146.744 98.004 146.708 97.908 146.708 97.8C146.72 97.512 146.852 97.188 147.104 96.828C147.368 96.456 147.77 96.138 148.31 95.874C148.85 95.598 149.516 95.46 150.308 95.46C151.652 95.46 152.618 95.778 153.206 96.414C153.794 97.038 154.088 97.818 154.088 98.754V104.586C154.088 104.706 154.046 104.808 153.962 104.892C153.89 104.964 153.794 105 153.674 105H152.846C152.726 105 152.624 104.964 152.54 104.892C152.468 104.808 152.432 104.706 152.432 104.586V103.812C152.168 104.196 151.784 104.52 151.28 104.784C150.776 105.048 150.134 105.18 149.354 105.18ZM149.732 103.83C150.512 103.83 151.148 103.578 151.64 103.074C152.144 102.558 152.396 101.82 152.396 100.86V100.356L150.308 100.662C149.456 100.782 148.814 100.986 148.382 101.274C147.95 101.55 147.734 101.904 147.734 102.336C147.734 102.816 147.932 103.188 148.328 103.452C148.724 103.704 149.192 103.83 149.732 103.83ZM156.946 93.894C156.826 93.894 156.724 93.858 156.64 93.786C156.568 93.702 156.532 93.6 156.532 93.48V92.508C156.532 92.388 156.568 92.286 156.64 92.202C156.724 92.118 156.826 92.076 156.946 92.076H158.08C158.2 92.076 158.302 92.118 158.386 92.202C158.47 92.286 158.512 92.388 158.512 92.508V93.48C158.512 93.6 158.47 93.702 158.386 93.786C158.302 93.858 158.2 93.894 158.08 93.894H156.946ZM157.09 105C156.97 105 156.868 104.964 156.784 104.892C156.712 104.808 156.676 104.706 156.676 104.586V96.054C156.676 95.934 156.712 95.838 156.784 95.766C156.868 95.682 156.97 95.64 157.09 95.64H157.954C158.074 95.64 158.17 95.682 158.242 95.766C158.326 95.838 158.368 95.934 158.368 96.054V104.586C158.368 104.706 158.326 104.808 158.242 104.892C158.17 104.964 158.074 105 157.954 105H157.09ZM161.467 105C161.347 105 161.245 104.964 161.161 104.892C161.089 104.808 161.053 104.706 161.053 104.586V92.634C161.053 92.514 161.089 92.418 161.161 92.346C161.245 92.262 161.347 92.22 161.467 92.22H162.313C162.433 92.22 162.529 92.262 162.601 92.346C162.685 92.418 162.727 92.514 162.727 92.634V104.586C162.727 104.706 162.685 104.808 162.601 104.892C162.529 104.964 162.433 105 162.313 105H161.467ZM165.7 105C165.58 105 165.478 104.964 165.394 104.892C165.322 104.808 165.286 104.706 165.286 104.586V103.29C165.286 103.17 165.322 103.074 165.394 103.002C165.478 102.918 165.58 102.876 165.7 102.876H166.996C167.116 102.876 167.218 102.918 167.302 103.002C167.386 103.074 167.428 103.17 167.428 103.29V104.586C167.428 104.706 167.386 104.808 167.302 104.892C167.218 104.964 167.116 105 166.996 105H165.7ZM173.551 105.18C172.267 105.18 171.259 104.82 170.527 104.1C169.807 103.368 169.423 102.348 169.375 101.04L169.357 100.32L169.375 99.6C169.423 98.292 169.807 97.278 170.527 96.558C171.259 95.826 172.267 95.46 173.551 95.46C174.415 95.46 175.147 95.616 175.747 95.928C176.347 96.24 176.791 96.624 177.079 97.08C177.379 97.536 177.541 97.992 177.565 98.448C177.577 98.568 177.541 98.664 177.457 98.736C177.373 98.808 177.271 98.844 177.151 98.844H176.287C176.167 98.844 176.077 98.82 176.017 98.772C175.957 98.724 175.897 98.628 175.837 98.484C175.633 97.908 175.345 97.5 174.973 97.26C174.601 97.008 174.133 96.882 173.569 96.882C172.825 96.882 172.231 97.116 171.787 97.584C171.355 98.04 171.121 98.742 171.085 99.69L171.067 100.338L171.085 100.95C171.121 101.91 171.355 102.618 171.787 103.074C172.219 103.53 172.813 103.758 173.569 103.758C174.133 103.758 174.601 103.638 174.973 103.398C175.345 103.146 175.633 102.732 175.837 102.156C175.897 102.012 175.957 101.916 176.017 101.868C176.077 101.808 176.167 101.778 176.287 101.778H177.151C177.271 101.778 177.373 101.82 177.457 101.904C177.541 101.976 177.577 102.072 177.565 102.192C177.541 102.636 177.379 103.092 177.079 103.56C176.791 104.016 176.347 104.4 175.747 104.712C175.159 105.024 174.427 105.18 173.551 105.18ZM183.537 105.18C182.217 105.18 181.191 104.808 180.459 104.064C179.739 103.32 179.355 102.33 179.307 101.094L179.289 100.32L179.307 99.546C179.355 98.322 179.745 97.338 180.477 96.594C181.209 95.838 182.229 95.46 183.537 95.46C184.845 95.46 185.865 95.838 186.597 96.594C187.329 97.338 187.719 98.322 187.767 99.546C187.779 99.678 187.785 99.936 187.785 100.32C187.785 100.704 187.779 100.962 187.767 101.094C187.719 102.33 187.329 103.32 186.597 104.064C185.877 104.808 184.857 105.18 183.537 105.18ZM183.537 103.794C184.293 103.794 184.887 103.554 185.319 103.074C185.763 102.594 186.003 101.904 186.039 101.004C186.051 100.884 186.057 100.656 186.057 100.32C186.057 99.984 186.051 99.756 186.039 99.636C186.003 98.736 185.763 98.046 185.319 97.566C184.887 97.086 184.293 96.846 183.537 96.846C182.781 96.846 182.181 97.086 181.737 97.566C181.293 98.046 181.059 98.736 181.035 99.636L181.017 100.32L181.035 101.004C181.059 101.904 181.293 102.594 181.737 103.074C182.181 103.554 182.781 103.794 183.537 103.794ZM190.453 105C190.333 105 190.231 104.964 190.147 104.892C190.075 104.808 190.039 104.706 190.039 104.586V96.054C190.039 95.934 190.075 95.838 190.147 95.766C190.231 95.682 190.333 95.64 190.453 95.64H191.263C191.383 95.64 191.479 95.682 191.551 95.766C191.635 95.838 191.677 95.934 191.677 96.054V96.684C192.301 95.868 193.171 95.46 194.287 95.46C195.619 95.46 196.561 96.012 197.113 97.116C197.401 96.612 197.809 96.21 198.337 95.91C198.865 95.61 199.459 95.46 200.119 95.46C201.103 95.46 201.907 95.796 202.531 96.468C203.155 97.14 203.467 98.112 203.467 99.384V104.586C203.467 104.706 203.425 104.808 203.341 104.892C203.269 104.964 203.173 105 203.053 105H202.207C202.087 105 201.985 104.964 201.901 104.892C201.829 104.808 201.793 104.706 201.793 104.586V99.546C201.793 98.61 201.595 97.938 201.199 97.53C200.815 97.122 200.305 96.918 199.669 96.918C199.105 96.918 198.619 97.128 198.211 97.548C197.803 97.956 197.599 98.622 197.599 99.546V104.586C197.599 104.706 197.557 104.808 197.473 104.892C197.401 104.964 197.305 105 197.185 105H196.339C196.219 105 196.117 104.964 196.033 104.892C195.961 104.808 195.925 104.706 195.925 104.586V99.546C195.925 98.61 195.721 97.938 195.313 97.53C194.917 97.122 194.413 96.918 193.801 96.918C193.237 96.918 192.751 97.128 192.343 97.548C191.935 97.956 191.731 98.616 191.731 99.528V104.586C191.731 104.706 191.689 104.808 191.605 104.892C191.533 104.964 191.437 105 191.317 105H190.453Z" fill="#555555"/>
<path d="M30.156 138.18C28.584 138.18 27.36 137.754 26.484 136.902C25.62 136.038 25.158 134.862 25.098 133.374C25.086 133.014 25.08 132.45 25.08 131.682C25.08 130.902 25.086 130.338 25.098 129.99C25.158 128.514 25.626 127.35 26.502 126.498C27.378 125.646 28.596 125.22 30.156 125.22C31.212 125.22 32.106 125.412 32.838 125.796C33.582 126.168 34.14 126.624 34.512 127.164C34.884 127.704 35.082 128.208 35.106 128.676V128.712C35.106 128.808 35.07 128.886 34.998 128.946C34.926 129.006 34.836 129.036 34.728 129.036H33.666C33.546 129.036 33.456 129.018 33.396 128.982C33.348 128.934 33.3 128.844 33.252 128.712C33.072 128.172 32.724 127.71 32.208 127.326C31.704 126.942 31.02 126.75 30.156 126.75C29.16 126.75 28.38 127.02 27.816 127.56C27.252 128.1 26.946 128.94 26.898 130.08C26.886 130.428 26.88 130.962 26.88 131.682C26.88 132.39 26.886 132.924 26.898 133.284C26.946 134.436 27.252 135.288 27.816 135.84C28.38 136.38 29.16 136.65 30.156 136.65C31.164 136.65 31.968 136.374 32.568 135.822C33.168 135.27 33.468 134.442 33.468 133.338V132.582H30.768C30.648 132.582 30.546 132.546 30.462 132.474C30.39 132.39 30.354 132.282 30.354 132.15V131.574C30.354 131.454 30.39 131.352 30.462 131.268C30.546 131.184 30.648 131.142 30.768 131.142H34.836C34.956 131.142 35.052 131.184 35.124 131.268C35.208 131.34 35.25 131.442 35.25 131.574V133.302C35.25 134.286 35.046 135.144 34.638 135.876C34.23 136.608 33.642 137.178 32.874 137.586C32.106 137.982 31.2 138.18 30.156 138.18ZM41.418 138.18C40.098 138.18 39.072 137.808 38.34 137.064C37.62 136.32 37.236 135.33 37.188 134.094L37.17 133.32L37.188 132.546C37.236 131.322 37.626 130.338 38.358 129.594C39.09 128.838 40.11 128.46 41.418 128.46C42.726 128.46 43.746 128.838 44.478 129.594C45.21 130.338 45.6 131.322 45.648 132.546C45.66 132.678 45.666 132.936 45.666 133.32C45.666 133.704 45.66 133.962 45.648 134.094C45.6 135.33 45.21 136.32 44.478 137.064C43.758 137.808 42.738 138.18 41.418 138.18ZM41.418 136.794C42.174 136.794 42.768 136.554 43.2 136.074C43.644 135.594 43.884 134.904 43.92 134.004C43.932 133.884 43.938 133.656 43.938 133.32C43.938 132.984 43.932 132.756 43.92 132.636C43.884 131.736 43.644 131.046 43.2 130.566C42.768 130.086 42.174 129.846 41.418 129.846C40.662 129.846 40.062 130.086 39.618 130.566C39.174 131.046 38.94 131.736 38.916 132.636L38.898 133.32L38.916 134.004C38.94 134.904 39.174 135.594 39.618 136.074C40.062 136.554 40.662 136.794 41.418 136.794ZM51.7539 138.18C50.4339 138.18 49.4079 137.808 48.6759 137.064C47.9559 136.32 47.5719 135.33 47.5239 134.094L47.5059 133.32L47.5239 132.546C47.5719 131.322 47.9619 130.338 48.6939 129.594C49.4259 128.838 50.4459 128.46 51.7539 128.46C53.0619 128.46 54.0819 128.838 54.8139 129.594C55.5459 130.338 55.9359 131.322 55.9839 132.546C55.9959 132.678 56.0019 132.936 56.0019 133.32C56.0019 133.704 55.9959 133.962 55.9839 134.094C55.9359 135.33 55.5459 136.32 54.8139 137.064C54.0939 137.808 53.0739 138.18 51.7539 138.18ZM51.7539 136.794C52.5099 136.794 53.1039 136.554 53.5359 136.074C53.9799 135.594 54.2199 134.904 54.2559 134.004C54.2679 133.884 54.2739 133.656 54.2739 133.32C54.2739 132.984 54.2679 132.756 54.2559 132.636C54.2199 131.736 53.9799 131.046 53.5359 130.566C53.1039 130.086 52.5099 129.846 51.7539 129.846C50.9979 129.846 50.3979 130.086 49.9539 130.566C49.5099 131.046 49.2759 131.736 49.2519 132.636L49.2339 133.32L49.2519 134.004C49.2759 134.904 49.5099 135.594 49.9539 136.074C50.3979 136.554 50.9979 136.794 51.7539 136.794ZM62.0898 141.96C61.1058 141.96 60.3138 141.792 59.7138 141.456C59.1138 141.132 58.6878 140.76 58.4358 140.34C58.1838 139.92 58.0458 139.542 58.0218 139.206C58.0098 139.086 58.0458 138.984 58.1298 138.9C58.2258 138.816 58.3278 138.774 58.4358 138.774H59.2998C59.4078 138.774 59.4978 138.798 59.5698 138.846C59.6418 138.906 59.7018 139.008 59.7498 139.152C59.8938 139.536 60.1278 139.866 60.4518 140.142C60.7878 140.43 61.3038 140.574 61.9998 140.574C62.8878 140.574 63.5418 140.382 63.9618 139.998C64.3818 139.626 64.5918 138.96 64.5918 138V136.776C64.2798 137.172 63.8838 137.49 63.4038 137.73C62.9238 137.958 62.3538 138.072 61.6938 138.072C60.4218 138.072 59.4678 137.67 58.8318 136.866C58.2078 136.05 57.8778 135.018 57.8418 133.77L57.8238 133.266L57.8418 132.78C57.8778 131.544 58.2138 130.518 58.8498 129.702C59.4858 128.874 60.4338 128.46 61.6938 128.46C62.9538 128.46 63.9378 128.922 64.6458 129.846V129.072C64.6458 128.952 64.6818 128.85 64.7538 128.766C64.8378 128.682 64.9398 128.64 65.0598 128.64H65.8878C66.0078 128.64 66.1098 128.682 66.1938 128.766C66.2778 128.85 66.3198 128.952 66.3198 129.072V137.802C66.3198 140.574 64.9098 141.96 62.0898 141.96ZM62.0538 136.632C62.8698 136.632 63.4878 136.362 63.9078 135.822C64.3278 135.282 64.5558 134.64 64.5918 133.896C64.6038 133.788 64.6098 133.578 64.6098 133.266C64.6098 132.966 64.6038 132.762 64.5918 132.654C64.5558 131.91 64.3278 131.268 63.9078 130.728C63.4998 130.188 62.8818 129.918 62.0538 129.918C61.2018 129.918 60.5838 130.182 60.1998 130.71C59.8158 131.238 59.6058 131.934 59.5698 132.798L59.5518 133.266L59.5698 133.752C59.6058 134.604 59.8158 135.3 60.1998 135.84C60.5838 136.368 61.2018 136.632 62.0538 136.632ZM69.4281 138C69.3081 138 69.2061 137.964 69.1221 137.892C69.0501 137.808 69.0141 137.706 69.0141 137.586V125.634C69.0141 125.514 69.0501 125.418 69.1221 125.346C69.2061 125.262 69.3081 125.22 69.4281 125.22H70.2741C70.3941 125.22 70.4901 125.262 70.5621 125.346C70.6461 125.418 70.6881 125.514 70.6881 125.634V137.586C70.6881 137.706 70.6461 137.808 70.5621 137.892C70.4901 137.964 70.3941 138 70.2741 138H69.4281ZM77.117 138.18C75.881 138.18 74.891 137.802 74.147 137.046C73.415 136.278 73.013 135.234 72.941 133.914L72.923 133.302L72.941 132.708C73.025 131.412 73.433 130.38 74.165 129.612C74.909 128.844 75.887 128.46 77.099 128.46C78.431 128.46 79.463 128.886 80.195 129.738C80.927 130.578 81.293 131.718 81.293 133.158V133.464C81.293 133.584 81.251 133.686 81.167 133.77C81.095 133.842 80.999 133.878 80.879 133.878H74.651V134.04C74.687 134.82 74.921 135.486 75.353 136.038C75.797 136.578 76.379 136.848 77.099 136.848C77.651 136.848 78.101 136.74 78.449 136.524C78.809 136.296 79.073 136.062 79.241 135.822C79.349 135.678 79.427 135.594 79.475 135.57C79.535 135.534 79.637 135.516 79.781 135.516H80.663C80.771 135.516 80.861 135.546 80.933 135.606C81.005 135.666 81.041 135.75 81.041 135.858C81.041 136.122 80.873 136.44 80.537 136.812C80.213 137.184 79.751 137.508 79.151 137.784C78.563 138.048 77.885 138.18 77.117 138.18ZM79.583 132.636V132.582C79.583 131.754 79.355 131.082 78.899 130.566C78.455 130.038 77.855 129.774 77.099 129.774C76.343 129.774 75.743 130.038 75.299 130.566C74.867 131.082 74.651 131.754 74.651 132.582V132.636H79.583ZM88.2894 141.42C88.1694 141.42 88.0674 141.378 87.9834 141.294C87.9114 141.222 87.8754 141.126 87.8754 141.006V129.054C87.8754 128.934 87.9114 128.838 87.9834 128.766C88.0674 128.682 88.1694 128.64 88.2894 128.64H89.1174C89.2374 128.64 89.3334 128.682 89.4054 128.766C89.4894 128.838 89.5314 128.934 89.5314 129.054V129.846C90.2034 128.922 91.1874 128.46 92.4834 128.46C93.7434 128.46 94.6854 128.856 95.3094 129.648C95.9454 130.44 96.2874 131.46 96.3354 132.708C96.3474 132.84 96.3534 133.044 96.3534 133.32C96.3534 133.596 96.3474 133.8 96.3354 133.932C96.2874 135.168 95.9454 136.188 95.3094 136.992C94.6734 137.784 93.7314 138.18 92.4834 138.18C91.2354 138.18 90.2634 137.73 89.5674 136.83V141.006C89.5674 141.126 89.5314 141.222 89.4594 141.294C89.3874 141.378 89.2914 141.42 89.1714 141.42H88.2894ZM92.1054 136.722C92.9574 136.722 93.5754 136.458 93.9594 135.93C94.3554 135.402 94.5714 134.706 94.6074 133.842C94.6194 133.722 94.6254 133.548 94.6254 133.32C94.6254 131.052 93.7854 129.918 92.1054 129.918C91.2774 129.918 90.6534 130.194 90.2334 130.746C89.8254 131.286 89.6034 131.934 89.5674 132.69L89.5494 133.374L89.5674 134.076C89.5914 134.784 89.8194 135.402 90.2514 135.93C90.6834 136.458 91.3014 136.722 92.1054 136.722ZM99.012 138C98.892 138 98.79 137.964 98.706 137.892C98.634 137.808 98.598 137.706 98.598 137.586V125.634C98.598 125.514 98.634 125.418 98.706 125.346C98.79 125.262 98.892 125.22 99.012 125.22H99.858C99.978 125.22 100.074 125.262 100.146 125.346C100.23 125.418 100.272 125.514 100.272 125.634V137.586C100.272 137.706 100.23 137.808 100.146 137.892C100.074 137.964 99.978 138 99.858 138H99.012ZM105.567 138.18C104.979 138.18 104.433 138.06 103.929 137.82C103.425 137.58 103.023 137.256 102.723 136.848C102.435 136.428 102.291 135.966 102.291 135.462C102.291 134.67 102.615 134.022 103.263 133.518C103.923 133.002 104.811 132.666 105.927 132.51L108.609 132.132V131.61C108.609 130.386 107.907 129.774 106.503 129.774C105.975 129.774 105.543 129.888 105.207 130.116C104.871 130.332 104.619 130.59 104.451 130.89C104.415 130.998 104.367 131.076 104.307 131.124C104.259 131.172 104.187 131.196 104.091 131.196H103.317C103.209 131.196 103.113 131.16 103.029 131.088C102.957 131.004 102.921 130.908 102.921 130.8C102.933 130.512 103.065 130.188 103.317 129.828C103.581 129.456 103.983 129.138 104.523 128.874C105.063 128.598 105.729 128.46 106.521 128.46C107.865 128.46 108.831 128.778 109.419 129.414C110.007 130.038 110.301 130.818 110.301 131.754V137.586C110.301 137.706 110.259 137.808 110.175 137.892C110.103 137.964 110.007 138 109.887 138H109.059C108.939 138 108.837 137.964 108.753 137.892C108.681 137.808 108.645 137.706 108.645 137.586V136.812C108.381 137.196 107.997 137.52 107.493 137.784C106.989 138.048 106.347 138.18 105.567 138.18ZM105.945 136.83C106.725 136.83 107.361 136.578 107.853 136.074C108.357 135.558 108.609 134.82 108.609 133.86V133.356L106.521 133.662C105.669 133.782 105.027 133.986 104.595 134.274C104.163 134.55 103.947 134.904 103.947 135.336C103.947 135.816 104.145 136.188 104.541 136.452C104.937 136.704 105.405 136.83 105.945 136.83ZM114.333 141.42C114.237 141.42 114.153 141.384 114.081 141.312C114.009 141.24 113.973 141.156 113.973 141.06C113.973 140.976 114.003 140.868 114.063 140.736L115.449 137.442L112.011 129.324C111.951 129.168 111.921 129.066 111.921 129.018C111.921 128.91 111.957 128.82 112.029 128.748C112.101 128.676 112.191 128.64 112.299 128.64H113.181C113.373 128.64 113.517 128.742 113.613 128.946L116.349 135.498L119.157 128.946C119.253 128.742 119.403 128.64 119.607 128.64H120.453C120.561 128.64 120.651 128.676 120.723 128.748C120.795 128.82 120.831 128.904 120.831 129C120.831 129.036 120.801 129.144 120.741 129.324L115.629 141.114C115.533 141.318 115.383 141.42 115.179 141.42H114.333Z" fill="#555555"/>
<path d="M8.352 22.24C6.144 22.24 4.432 21.672 3.216 20.536C2.016 19.4 1.376 17.8 1.296 15.736C1.28 15.304 1.272 14.6 1.272 13.624C1.272 12.632 1.28 11.912 1.296 11.464C1.376 9.416 2.024 7.824 3.24 6.688C4.472 5.536 6.176 4.96 8.352 4.96C9.776 4.96 11.016 5.208 12.072 5.704C13.128 6.184 13.944 6.848 14.52 7.696C15.096 8.528 15.4 9.472 15.432 10.528V10.576C15.432 10.704 15.376 10.816 15.264 10.912C15.168 10.992 15.056 11.032 14.928 11.032H12.648C12.456 11.032 12.312 10.992 12.216 10.912C12.12 10.832 12.04 10.68 11.976 10.456C11.72 9.448 11.296 8.744 10.704 8.344C10.112 7.928 9.32 7.72 8.328 7.72C6.024 7.72 4.824 9.008 4.728 11.584C4.712 12.016 4.704 12.68 4.704 13.576C4.704 14.472 4.712 15.152 4.728 15.616C4.824 18.192 6.024 19.48 8.328 19.48C9.32 19.48 10.112 19.272 10.704 18.856C11.312 18.44 11.736 17.736 11.976 16.744C12.024 16.52 12.096 16.368 12.192 16.288C12.304 16.208 12.456 16.168 12.648 16.168H14.928C15.072 16.168 15.192 16.216 15.288 16.312C15.4 16.408 15.448 16.528 15.432 16.672C15.4 17.728 15.096 18.68 14.52 19.528C13.944 20.36 13.128 21.024 12.072 21.52C11.016 22 9.776 22.24 8.352 22.24ZM23.5103 22.24C21.6383 22.24 20.1903 21.76 19.1663 20.8C18.1423 19.824 17.5903 18.496 17.5103 16.816L17.4863 15.76L17.5103 14.704C17.5903 13.04 18.1503 11.72 19.1903 10.744C20.2303 9.768 21.6703 9.28 23.5103 9.28C25.3503 9.28 26.7903 9.768 27.8303 10.744C28.8703 11.72 29.4303 13.04 29.5103 14.704C29.5263 14.896 29.5343 15.248 29.5343 15.76C29.5343 16.272 29.5263 16.624 29.5103 16.816C29.4303 18.496 28.8783 19.824 27.8543 20.8C26.8303 21.76 25.3823 22.24 23.5103 22.24ZM23.5103 19.864C24.3583 19.864 25.0143 19.6 25.4783 19.072C25.9423 18.528 26.1983 17.736 26.2463 16.696C26.2623 16.536 26.2703 16.224 26.2703 15.76C26.2703 15.296 26.2623 14.984 26.2463 14.824C26.1983 13.784 25.9423 13 25.4783 12.472C25.0143 11.928 24.3583 11.656 23.5103 11.656C22.6623 11.656 22.0063 11.928 21.5423 12.472C21.0783 13 20.8223 13.784 20.7743 14.824L20.7503 15.76L20.7743 16.696C20.8223 17.736 21.0783 18.528 21.5423 19.072C22.0063 19.6 22.6623 19.864 23.5103 19.864ZM32.7694 22C32.6094 22 32.4734 21.944 32.3614 21.832C32.2494 21.72 32.1934 21.584 32.1934 21.424V10.096C32.1934 9.936 32.2494 9.8 32.3614 9.688C32.4734 9.576 32.6094 9.52 32.7694 9.52H34.7374C34.8974 9.52 35.0334 9.576 35.1454 9.688C35.2574 9.8 35.3134 9.936 35.3134 10.096V11.08C36.2574 9.88 37.5934 9.28 39.3214 9.28C40.7934 9.28 41.9614 9.768 42.8254 10.744C43.6894 11.704 44.1214 13.016 44.1214 14.68V21.424C44.1214 21.584 44.0654 21.72 43.9534 21.832C43.8574 21.944 43.7214 22 43.5454 22H41.4334C41.2734 22 41.1374 21.944 41.0254 21.832C40.9134 21.72 40.8574 21.584 40.8574 21.424V14.824C40.8574 13.88 40.6254 13.152 40.1614 12.64C39.7134 12.112 39.0574 11.848 38.1934 11.848C37.3454 11.848 36.6734 12.112 36.1774 12.64C35.6974 13.168 35.4574 13.896 35.4574 14.824V21.424C35.4574 21.584 35.4014 21.72 35.2894 21.832C35.1934 21.944 35.0574 22 34.8814 22H32.7694ZM52.6693 22C51.2133 22 50.1173 21.624 49.3813 20.872C48.6613 20.104 48.3013 18.984 48.3013 17.512V12.064H46.4053C46.2453 12.064 46.1093 12.008 45.9973 11.896C45.8853 11.768 45.8293 11.624 45.8293 11.464V10.096C45.8293 9.936 45.8853 9.8 45.9973 9.688C46.1093 9.576 46.2453 9.52 46.4053 9.52H48.3013V5.536C48.3013 5.36 48.3573 5.224 48.4693 5.128C48.5813 5.016 48.7173 4.96 48.8773 4.96H50.8213C50.9973 4.96 51.1333 5.016 51.2293 5.128C51.3413 5.224 51.3973 5.36 51.3973 5.536V9.52H54.3973C54.5733 9.52 54.7093 9.576 54.8053 9.688C54.9173 9.784 54.9733 9.92 54.9733 10.096V11.464C54.9733 11.64 54.9173 11.784 54.8053 11.896C54.6933 12.008 54.5573 12.064 54.3973 12.064H51.3973V17.272C51.3973 17.96 51.5173 18.48 51.7573 18.832C51.9973 19.184 52.3973 19.36 52.9573 19.36H54.6133C54.7733 19.36 54.9093 19.416 55.0213 19.528C55.1333 19.64 55.1893 19.776 55.1893 19.936V21.424C55.1893 21.584 55.1333 21.72 55.0213 21.832C54.9253 21.944 54.7893 22 54.6133 22H52.6693ZM60.9424 22.24C60.1264 22.24 59.3744 22.08 58.6864 21.76C58.0144 21.424 57.4784 20.976 57.0784 20.416C56.6944 19.856 56.5024 19.24 56.5024 18.568C56.5024 17.48 56.9424 16.6 57.8224 15.928C58.7024 15.256 59.9104 14.8 61.4464 14.56L64.7344 14.08V13.576C64.7344 12.872 64.5584 12.344 64.2064 11.992C63.8544 11.64 63.2864 11.464 62.5024 11.464C61.9744 11.464 61.5424 11.568 61.2064 11.776C60.8864 11.968 60.6304 12.16 60.4384 12.352C60.2464 12.56 60.1184 12.696 60.0544 12.76C59.9904 12.952 59.8704 13.048 59.6944 13.048H57.8464C57.7024 13.048 57.5744 13 57.4624 12.904C57.3664 12.808 57.3184 12.68 57.3184 12.52C57.3344 12.12 57.5264 11.664 57.8944 11.152C58.2784 10.64 58.8624 10.2 59.6464 9.832C60.4304 9.464 61.3904 9.28 62.5264 9.28C64.4144 9.28 65.7904 9.704 66.6544 10.552C67.5184 11.4 67.9504 12.512 67.9504 13.888V21.424C67.9504 21.584 67.8944 21.72 67.7824 21.832C67.6864 21.944 67.5504 22 67.3744 22H65.4304C65.2704 22 65.1344 21.944 65.0224 21.832C64.9104 21.72 64.8544 21.584 64.8544 21.424V20.488C64.5024 21 63.9984 21.424 63.3424 21.76C62.7024 22.08 61.9024 22.24 60.9424 22.24ZM61.7584 19.96C62.6384 19.96 63.3584 19.672 63.9184 19.096C64.4784 18.52 64.7584 17.68 64.7584 16.576V16.072L62.3584 16.456C61.4304 16.6 60.7264 16.832 60.2464 17.152C59.7824 17.472 59.5504 17.864 59.5504 18.328C59.5504 18.84 59.7664 19.24 60.1984 19.528C60.6304 19.816 61.1504 19.96 61.7584 19.96ZM76.4293 22.24C74.6693 22.24 73.2613 21.752 72.2053 20.776C71.1653 19.8 70.6133 18.448 70.5493 16.72L70.5253 15.76L70.5493 14.8C70.6133 13.072 71.1653 11.72 72.2053 10.744C73.2613 9.768 74.6693 9.28 76.4293 9.28C77.6773 9.28 78.7333 9.504 79.5973 9.952C80.4773 10.4 81.1253 10.952 81.5413 11.608C81.9733 12.248 82.2053 12.856 82.2373 13.432C82.2533 13.592 82.1973 13.728 82.0693 13.84C81.9573 13.952 81.8213 14.008 81.6613 14.008H79.5493C79.3893 14.008 79.2613 13.976 79.1653 13.912C79.0853 13.832 79.0053 13.704 78.9253 13.528C78.6853 12.904 78.3653 12.456 77.9653 12.184C77.5813 11.912 77.0853 11.776 76.4773 11.776C75.6613 11.776 75.0213 12.04 74.5573 12.568C74.0933 13.08 73.8453 13.864 73.8133 14.92L73.7893 15.808L73.8133 16.6C73.8773 18.696 74.7653 19.744 76.4773 19.744C77.1013 19.744 77.6053 19.608 77.9893 19.336C78.3733 19.064 78.6853 18.616 78.9253 17.992C79.0053 17.816 79.0853 17.696 79.1653 17.632C79.2613 17.552 79.3893 17.512 79.5493 17.512H81.6613C81.8213 17.512 81.9573 17.568 82.0693 17.68C82.1973 17.792 82.2533 17.928 82.2373 18.088C82.2053 18.648 81.9813 19.248 81.5653 19.888C81.1493 20.528 80.5093 21.08 79.6453 21.544C78.7813 22.008 77.7093 22.24 76.4293 22.24ZM90.3803 22C88.9243 22 87.8283 21.624 87.0923 20.872C86.3723 20.104 86.0123 18.984 86.0123 17.512V12.064H84.1163C83.9563 12.064 83.8203 12.008 83.7083 11.896C83.5963 11.768 83.5403 11.624 83.5403 11.464V10.096C83.5403 9.936 83.5963 9.8 83.7083 9.688C83.8203 9.576 83.9563 9.52 84.1163 9.52H86.0123V5.536C86.0123 5.36 86.0683 5.224 86.1803 5.128C86.2923 5.016 86.4283 4.96 86.5883 4.96H88.5323C88.7083 4.96 88.8443 5.016 88.9403 5.128C89.0523 5.224 89.1083 5.36 89.1083 5.536V9.52H92.1083C92.2843 9.52 92.4203 9.576 92.5163 9.688C92.6283 9.784 92.6843 9.92 92.6843 10.096V11.464C92.6843 11.64 92.6283 11.784 92.5163 11.896C92.4043 12.008 92.2683 12.064 92.1083 12.064H89.1083V17.272C89.1083 17.96 89.2283 18.48 89.4683 18.832C89.7083 19.184 90.1083 19.36 90.6683 19.36H92.3243C92.4843 19.36 92.6203 19.416 92.7323 19.528C92.8443 19.64 92.9003 19.776 92.9003 19.936V21.424C92.9003 21.584 92.8443 21.72 92.7323 21.832C92.6363 21.944 92.5003 22 92.3243 22H90.3803Z" fill="#222222"/>
<rect y="85" width="16" height="16"/>
<path d="M11.9476 124.488C10.0889 123.449 7.10564 121.779 2.47838 119.188C2.16641 118.982 1.80747 118.955 1.49734 119.06L9.43642 126.999L11.9476 124.488Z" fill="#32BBFF"/>
<path d="M1.49811 119.06C1.43998 119.08 1.38342 119.103 1.32933 119.132C0.986856 119.317 0.735199 119.674 0.735199 120.125V133.874C0.735199 134.324 0.986825 134.681 1.32933 134.866C1.38333 134.895 1.43986 134.919 1.49792 134.938L9.43718 126.999L1.49811 119.06Z" fill="#32BBFF"/>
<path d="M9.43615 126.999L1.49689 134.938C1.80711 135.044 2.16604 135.019 2.47811 134.81C6.96555 132.297 9.91518 130.648 11.7954 129.599C11.8477 129.57 11.899 129.541 11.9497 129.513L9.43615 126.999Z" fill="#32BBFF"/>
<path d="M0.735199 127V133.874C0.735199 134.325 0.986825 134.681 1.32933 134.866C1.38333 134.895 1.43986 134.919 1.49792 134.939L9.43718 127H0.735199Z" fill="#2C9FD9"/>
<path d="M2.48066 119.188C2.11019 118.944 1.67331 118.951 1.33084 119.132L9.3182 127.12L11.9498 124.488C10.0912 123.449 7.10791 121.779 2.48066 119.188Z" fill="#29CC5E"/>
<path d="M9.31826 126.879L1.33084 134.866C1.67334 135.048 2.11019 135.058 2.48066 134.81C6.9681 132.298 9.91773 130.648 11.7979 129.6C11.8503 129.57 11.9015 129.541 11.9522 129.513L9.31826 126.879Z" fill="#D93F21"/>
<path d="M15.2633 126.999C15.2633 126.619 15.071 126.234 14.6901 126.021C14.6901 126.021 13.9776 125.623 11.7938 124.402L9.19617 126.999L11.7963 129.6C13.9562 128.387 14.69 127.978 14.69 127.978C15.071 127.765 15.2633 127.38 15.2633 126.999Z" fill="#FFD500"/>
<path d="M14.6901 127.978C15.071 127.765 15.2633 127.38 15.2633 127H9.19617L11.7963 129.6C13.9562 128.387 14.6901 127.978 14.6901 127.978Z" fill="#FFAA00"/>
<g clip-path="url(#clip0_2_246)">
<path d="M14.7162 62.5022C13.7366 62.5022 12.7747 62.349 11.8633 62.0478C11.4167 61.8954 10.8676 62.0352 10.595 62.3151L8.796 63.6732C6.70963 62.5595 5.42446 61.2748 4.32596 59.204L5.64408 57.4519C5.98654 57.1099 6.10938 56.6103 5.96221 56.1415C5.65971 55.2253 5.50604 54.2639 5.50604 53.2839C5.50608 52.576 4.93013 52 4.22221 52H1.28387C0.575958 52 0 52.576 0 53.2839C0 61.3985 6.60158 68 14.7162 68C15.4241 68 16 67.424 16 66.7161V63.786C16 63.0781 15.424 62.5022 14.7162 62.5022Z" fill="#555555"/>
</g>
<defs>
<clipPath id="clip0_2_246">
<rect width="16" height="16" fill="white" transform="translate(0 53)"/>
</clipPath>
</defs>
</svg>
